<mxfile host="app.diagrams.net" modified="2023-11-06T16:23:04.959Z" agent="Mozilla/5.0 (Macintosh; Intel Mac OS X 10_15_7) AppleWebKit/605.1.15 (KHTML, like Gecko) Version/17.0 Safari/605.1.15" etag="egnpJSJW7B8MPg_XgtMk" version="22.0.8" type="github" pages="2">
  <diagram name="Wireframe" id="lSCA6FyjD7lzr-MQ56BR">
    <mxGraphModel dx="984" dy="666" grid="1" gridSize="10" guides="1" tooltips="1" connect="1" arrows="1" fold="1" page="1" pageScale="1" pageWidth="827" pageHeight="1169" math="0" shadow="0">
      <root>
        <mxCell id="0" />
        <mxCell id="1" parent="0" />
        <mxCell id="UGzT4yDKIXXeCEcgUepI-1" value="" style="html=1;verticalLabelPosition=bottom;labelBackgroundColor=#ffffff;verticalAlign=top;shadow=0;dashed=0;strokeWidth=1;shape=mxgraph.ios7.misc.iphone;strokeColor=#c0c0c0;" vertex="1" parent="1">
          <mxGeometry x="152" y="50" width="200" height="400" as="geometry" />
        </mxCell>
        <mxCell id="UGzT4yDKIXXeCEcgUepI-6" value="" style="shape=rect;fillColor=#e0e0e0;strokeColor=none;" vertex="1" parent="1">
          <mxGeometry x="176" y="160" width="164" height="20" as="geometry" />
        </mxCell>
        <mxCell id="UGzT4yDKIXXeCEcgUepI-7" value="" style="html=1;strokeWidth=1;shadow=0;dashed=0;shape=mxgraph.ios7ui.marginRect;rx=3;ry=3;rectMargin=5;strokeColor=none;" vertex="1" parent="UGzT4yDKIXXeCEcgUepI-6">
          <mxGeometry width="164" height="20" as="geometry" />
        </mxCell>
        <mxCell id="UGzT4yDKIXXeCEcgUepI-8" value="Search" style="shape=mxgraph.ios7.icons.looking_glass;strokeColor=#e0e0e0;fillColor=none;fontColor=#e0e0e0;labelPosition=right;verticalLabelPosition=middle;align=left;verticalAlign=middle;fontSize=6;fontStyle=0;spacingTop=2;sketch=0;html=1;" vertex="1" parent="UGzT4yDKIXXeCEcgUepI-6">
          <mxGeometry x="0.5" y="0.5" width="6" height="6" relative="1" as="geometry">
            <mxPoint x="-17" y="-3" as="offset" />
          </mxGeometry>
        </mxCell>
        <mxCell id="UGzT4yDKIXXeCEcgUepI-62" value="" style="html=1;verticalLabelPosition=bottom;align=center;labelBackgroundColor=#ffffff;verticalAlign=top;strokeWidth=2;strokeColor=#0080F0;shadow=0;dashed=0;shape=mxgraph.ios7.icons.camera;" vertex="1" parent="UGzT4yDKIXXeCEcgUepI-6">
          <mxGeometry x="-10" width="30" height="17.4" as="geometry" />
        </mxCell>
        <mxCell id="UGzT4yDKIXXeCEcgUepI-10" value="Product" style="rounded=0;whiteSpace=wrap;html=1;" vertex="1" parent="1">
          <mxGeometry x="180" y="190" width="80" height="40" as="geometry" />
        </mxCell>
        <mxCell id="UGzT4yDKIXXeCEcgUepI-11" value="Description&lt;br&gt;" style="rounded=0;whiteSpace=wrap;html=1;" vertex="1" parent="1">
          <mxGeometry x="180" y="260" width="80" height="50" as="geometry" />
        </mxCell>
        <mxCell id="UGzT4yDKIXXeCEcgUepI-12" value="Price" style="rounded=0;whiteSpace=wrap;html=1;" vertex="1" parent="1">
          <mxGeometry x="180" y="310" width="80" height="50" as="geometry" />
        </mxCell>
        <mxCell id="UGzT4yDKIXXeCEcgUepI-14" value="" style="sketch=0;outlineConnect=0;fontColor=#232F3E;gradientColor=none;fillColor=#DD344C;strokeColor=none;dashed=0;verticalLabelPosition=bottom;verticalAlign=top;align=center;html=1;fontSize=12;fontStyle=0;aspect=fixed;shape=mxgraph.aws4.location_service_map;" vertex="1" parent="1">
          <mxGeometry x="304" y="115" width="30" height="30" as="geometry" />
        </mxCell>
        <mxCell id="UGzT4yDKIXXeCEcgUepI-15" value="More info" style="rounded=0;whiteSpace=wrap;html=1;" vertex="1" parent="1">
          <mxGeometry x="180" y="230" width="80" height="30" as="geometry" />
        </mxCell>
        <mxCell id="UGzT4yDKIXXeCEcgUepI-16" value="Logo" style="rounded=0;whiteSpace=wrap;html=1;" vertex="1" parent="1">
          <mxGeometry x="180" y="120" width="40" height="20" as="geometry" />
        </mxCell>
        <mxCell id="UGzT4yDKIXXeCEcgUepI-13" value="" style="html=1;verticalLabelPosition=bottom;align=center;labelBackgroundColor=#ffffff;verticalAlign=top;strokeWidth=2;strokeColor=#0080F0;shadow=0;dashed=0;shape=mxgraph.ios7.icons.location;" vertex="1" parent="1">
          <mxGeometry x="269" y="115" width="24" height="30" as="geometry" />
        </mxCell>
        <mxCell id="UGzT4yDKIXXeCEcgUepI-18" value="" style="html=1;verticalLabelPosition=bottom;labelBackgroundColor=#ffffff;verticalAlign=top;shadow=0;dashed=0;strokeWidth=1;shape=mxgraph.ios7.misc.iphone;strokeColor=#c0c0c0;" vertex="1" parent="1">
          <mxGeometry x="440" y="50" width="200" height="400" as="geometry" />
        </mxCell>
        <mxCell id="UGzT4yDKIXXeCEcgUepI-19" value="Title" style="rounded=0;whiteSpace=wrap;html=1;" vertex="1" parent="1">
          <mxGeometry x="480" y="110" width="120" height="60" as="geometry" />
        </mxCell>
        <mxCell id="UGzT4yDKIXXeCEcgUepI-21" value="Description" style="rounded=0;whiteSpace=wrap;html=1;" vertex="1" parent="1">
          <mxGeometry x="480" y="180" width="120" height="60" as="geometry" />
        </mxCell>
        <mxCell id="UGzT4yDKIXXeCEcgUepI-22" value="Price" style="rounded=0;whiteSpace=wrap;html=1;" vertex="1" parent="1">
          <mxGeometry x="480" y="240" width="120" height="60" as="geometry" />
        </mxCell>
        <mxCell id="UGzT4yDKIXXeCEcgUepI-25" value="" style="html=1;verticalLabelPosition=bottom;labelBackgroundColor=#ffffff;verticalAlign=top;shadow=0;dashed=0;strokeWidth=1;shape=mxgraph.ios7.misc.iphone;strokeColor=#c0c0c0;" vertex="1" parent="1">
          <mxGeometry x="140" y="490" width="200" height="400" as="geometry" />
        </mxCell>
        <mxCell id="UGzT4yDKIXXeCEcgUepI-26" value="Create List" style="rounded=1;fillColor=#0057D8;strokeColor=none;html=1;whiteSpace=wrap;fontColor=#ffffff;align=center;verticalAlign=middle;fontStyle=0;fontSize=12;sketch=0;" vertex="1" parent="1">
          <mxGeometry x="247" y="554.5" width="70" height="30" as="geometry" />
        </mxCell>
        <mxCell id="UGzT4yDKIXXeCEcgUepI-27" value="HOME" style="rounded=0;whiteSpace=wrap;html=1;" vertex="1" parent="1">
          <mxGeometry x="199" y="50" width="106" height="50" as="geometry" />
        </mxCell>
        <mxCell id="UGzT4yDKIXXeCEcgUepI-28" value="Product Details" style="rounded=0;whiteSpace=wrap;html=1;" vertex="1" parent="1">
          <mxGeometry x="494" y="50" width="106" height="50" as="geometry" />
        </mxCell>
        <mxCell id="UGzT4yDKIXXeCEcgUepI-29" value="List Page" style="rounded=0;whiteSpace=wrap;html=1;" vertex="1" parent="1">
          <mxGeometry x="187" y="490" width="106" height="50" as="geometry" />
        </mxCell>
        <mxCell id="UGzT4yDKIXXeCEcgUepI-30" value="Add to list" style="rounded=1;fillColor=#0057D8;strokeColor=none;html=1;whiteSpace=wrap;fontColor=#ffffff;align=center;verticalAlign=middle;fontStyle=0;fontSize=12;sketch=0;" vertex="1" parent="1">
          <mxGeometry x="494" y="310" width="78.18" height="30" as="geometry" />
        </mxCell>
        <mxCell id="UGzT4yDKIXXeCEcgUepI-34" value="Update List" style="rounded=1;fillColor=#0057D8;strokeColor=none;html=1;whiteSpace=wrap;fontColor=#ffffff;align=center;verticalAlign=middle;fontStyle=0;fontSize=12;sketch=0;" vertex="1" parent="1">
          <mxGeometry x="247" y="590" width="70" height="30" as="geometry" />
        </mxCell>
        <mxCell id="UGzT4yDKIXXeCEcgUepI-35" value="Delete List" style="rounded=1;fillColor=#0057D8;strokeColor=none;html=1;whiteSpace=wrap;fontColor=#ffffff;align=center;verticalAlign=middle;fontStyle=0;fontSize=12;sketch=0;" vertex="1" parent="1">
          <mxGeometry x="247" y="630" width="70" height="30" as="geometry" />
        </mxCell>
        <mxCell id="UGzT4yDKIXXeCEcgUepI-36" value="" style="html=1;shadow=0;dashed=0;shape=mxgraph.bootstrap.rrect;rSize=5;strokeColor=#DFDFDF;html=1;whiteSpace=wrap;fillColor=#FFFFFF;fontColor=#000000;" vertex="1" parent="1">
          <mxGeometry x="160" y="670" width="150" height="120" as="geometry" />
        </mxCell>
        <mxCell id="UGzT4yDKIXXeCEcgUepI-37" value="Cras justo odio" style="strokeColor=inherit;fillColor=inherit;gradientColor=inherit;fontColor=inherit;html=1;shadow=0;dashed=0;shape=mxgraph.bootstrap.topButton;rSize=5;perimeter=none;whiteSpace=wrap;resizeWidth=1;align=left;spacing=10;" vertex="1" parent="UGzT4yDKIXXeCEcgUepI-36">
          <mxGeometry width="150" height="30" relative="1" as="geometry" />
        </mxCell>
        <mxCell id="UGzT4yDKIXXeCEcgUepI-38" value="Dapibus ac facilisis in" style="strokeColor=inherit;fillColor=inherit;gradientColor=inherit;fontColor=inherit;html=1;shadow=0;dashed=0;perimeter=none;whiteSpace=wrap;resizeWidth=1;align=left;spacing=10;" vertex="1" parent="UGzT4yDKIXXeCEcgUepI-36">
          <mxGeometry width="150" height="30" relative="1" as="geometry">
            <mxPoint y="30" as="offset" />
          </mxGeometry>
        </mxCell>
        <mxCell id="UGzT4yDKIXXeCEcgUepI-39" value="Morbi leo risus" style="strokeColor=inherit;fillColor=inherit;gradientColor=inherit;fontColor=inherit;html=1;shadow=0;dashed=0;perimeter=none;whiteSpace=wrap;resizeWidth=1;align=left;spacing=10;" vertex="1" parent="UGzT4yDKIXXeCEcgUepI-36">
          <mxGeometry width="150" height="30" relative="1" as="geometry">
            <mxPoint y="60" as="offset" />
          </mxGeometry>
        </mxCell>
        <mxCell id="UGzT4yDKIXXeCEcgUepI-40" value="Porta ac consectetur ac" style="strokeColor=inherit;fillColor=inherit;gradientColor=inherit;fontColor=inherit;html=1;shadow=0;dashed=0;perimeter=none;whiteSpace=wrap;resizeWidth=1;align=left;spacing=10;" vertex="1" parent="UGzT4yDKIXXeCEcgUepI-36">
          <mxGeometry width="150" height="30" relative="1" as="geometry">
            <mxPoint y="90" as="offset" />
          </mxGeometry>
        </mxCell>
        <mxCell id="UGzT4yDKIXXeCEcgUepI-41" value="Vestibulum at eros" style="strokeColor=inherit;fillColor=inherit;gradientColor=inherit;fontColor=inherit;html=1;shadow=0;dashed=0;shape=mxgraph.bootstrap.bottomButton;rSize=5;perimeter=none;whiteSpace=wrap;resizeWidth=1;resizeHeight=0;align=left;spacing=10;" vertex="1" parent="UGzT4yDKIXXeCEcgUepI-36">
          <mxGeometry y="1" width="150" height="30" relative="1" as="geometry">
            <mxPoint y="-30" as="offset" />
          </mxGeometry>
        </mxCell>
        <mxCell id="UGzT4yDKIXXeCEcgUepI-42" value="Choose List" style="swimlane;fontStyle=0;childLayout=stackLayout;horizontal=1;startSize=30;horizontalStack=0;resizeParent=1;resizeParentMax=0;resizeLast=0;collapsible=1;marginBottom=0;whiteSpace=wrap;html=1;" vertex="1" parent="1">
          <mxGeometry x="640" y="300" width="140" height="120" as="geometry" />
        </mxCell>
        <mxCell id="UGzT4yDKIXXeCEcgUepI-43" value="List 1" style="text;strokeColor=none;fillColor=none;align=left;verticalAlign=middle;spacingLeft=4;spacingRight=4;overflow=hidden;points=[[0,0.5],[1,0.5]];portConstraint=eastwest;rotatable=0;whiteSpace=wrap;html=1;" vertex="1" parent="UGzT4yDKIXXeCEcgUepI-42">
          <mxGeometry y="30" width="140" height="30" as="geometry" />
        </mxCell>
        <mxCell id="UGzT4yDKIXXeCEcgUepI-44" value="List 2" style="text;strokeColor=none;fillColor=none;align=left;verticalAlign=middle;spacingLeft=4;spacingRight=4;overflow=hidden;points=[[0,0.5],[1,0.5]];portConstraint=eastwest;rotatable=0;whiteSpace=wrap;html=1;" vertex="1" parent="UGzT4yDKIXXeCEcgUepI-42">
          <mxGeometry y="60" width="140" height="30" as="geometry" />
        </mxCell>
        <mxCell id="UGzT4yDKIXXeCEcgUepI-45" value="List 3" style="text;strokeColor=none;fillColor=none;align=left;verticalAlign=middle;spacingLeft=4;spacingRight=4;overflow=hidden;points=[[0,0.5],[1,0.5]];portConstraint=eastwest;rotatable=0;whiteSpace=wrap;html=1;" vertex="1" parent="UGzT4yDKIXXeCEcgUepI-42">
          <mxGeometry y="90" width="140" height="30" as="geometry" />
        </mxCell>
        <mxCell id="UGzT4yDKIXXeCEcgUepI-46" style="edgeStyle=orthogonalEdgeStyle;rounded=0;orthogonalLoop=1;jettySize=auto;html=1;exitX=1;exitY=1;exitDx=0;exitDy=0;entryX=0;entryY=1.067;entryDx=0;entryDy=0;entryPerimeter=0;" edge="1" parent="1" source="UGzT4yDKIXXeCEcgUepI-30" target="UGzT4yDKIXXeCEcgUepI-43">
          <mxGeometry relative="1" as="geometry" />
        </mxCell>
        <mxCell id="UGzT4yDKIXXeCEcgUepI-47" value="" style="html=1;verticalLabelPosition=bottom;labelBackgroundColor=#ffffff;verticalAlign=top;shadow=0;dashed=0;strokeWidth=1;shape=mxgraph.ios7.misc.iphone;strokeColor=#c0c0c0;" vertex="1" parent="1">
          <mxGeometry x="500" y="490" width="200" height="400" as="geometry" />
        </mxCell>
        <mxCell id="UGzT4yDKIXXeCEcgUepI-48" value="List view" style="rounded=0;whiteSpace=wrap;html=1;" vertex="1" parent="1">
          <mxGeometry x="550" y="494.5" width="100" height="45.5" as="geometry" />
        </mxCell>
        <mxCell id="UGzT4yDKIXXeCEcgUepI-49" value="List" style="swimlane;fontStyle=0;childLayout=stackLayout;horizontal=1;startSize=26;fillColor=none;horizontalStack=0;resizeParent=1;resizeParentMax=0;resizeLast=0;collapsible=1;marginBottom=0;html=1;" vertex="1" parent="1">
          <mxGeometry x="520" y="566" width="140" height="104" as="geometry" />
        </mxCell>
        <mxCell id="UGzT4yDKIXXeCEcgUepI-50" value="Item 1" style="text;strokeColor=none;fillColor=none;align=left;verticalAlign=top;spacingLeft=4;spacingRight=4;overflow=hidden;rotatable=0;points=[[0,0.5],[1,0.5]];portConstraint=eastwest;whiteSpace=wrap;html=1;" vertex="1" parent="UGzT4yDKIXXeCEcgUepI-49">
          <mxGeometry y="26" width="140" height="26" as="geometry" />
        </mxCell>
        <mxCell id="UGzT4yDKIXXeCEcgUepI-51" value="Item 2" style="text;strokeColor=none;fillColor=none;align=left;verticalAlign=top;spacingLeft=4;spacingRight=4;overflow=hidden;rotatable=0;points=[[0,0.5],[1,0.5]];portConstraint=eastwest;whiteSpace=wrap;html=1;" vertex="1" parent="UGzT4yDKIXXeCEcgUepI-49">
          <mxGeometry y="52" width="140" height="26" as="geometry" />
        </mxCell>
        <mxCell id="UGzT4yDKIXXeCEcgUepI-52" value="Item 3" style="text;strokeColor=none;fillColor=none;align=left;verticalAlign=top;spacingLeft=4;spacingRight=4;overflow=hidden;rotatable=0;points=[[0,0.5],[1,0.5]];portConstraint=eastwest;whiteSpace=wrap;html=1;" vertex="1" parent="UGzT4yDKIXXeCEcgUepI-49">
          <mxGeometry y="78" width="140" height="26" as="geometry" />
        </mxCell>
        <mxCell id="UGzT4yDKIXXeCEcgUepI-53" value="" style="shape=mxgraph.signs.travel.pound;html=1;pointerEvents=1;fillColor=#000000;strokeColor=none;verticalLabelPosition=bottom;verticalAlign=top;align=center;" vertex="1" parent="1">
          <mxGeometry x="519.59" y="680" width="27" height="48" as="geometry" />
        </mxCell>
        <mxCell id="UGzT4yDKIXXeCEcgUepI-54" value="Price per location" style="text;html=1;strokeColor=none;fillColor=none;align=center;verticalAlign=middle;whiteSpace=wrap;rounded=0;" vertex="1" parent="1">
          <mxGeometry x="572.1800000000001" y="698" width="60" height="30" as="geometry" />
        </mxCell>
        <mxCell id="UGzT4yDKIXXeCEcgUepI-56" value="Analytics data" style="rounded=0;whiteSpace=wrap;html=1;" vertex="1" parent="1">
          <mxGeometry x="519.5899999999999" y="740" width="87.82" height="40" as="geometry" />
        </mxCell>
        <mxCell id="UGzT4yDKIXXeCEcgUepI-57" value="" style="verticalLabelPosition=bottom;shadow=0;dashed=0;align=center;html=1;verticalAlign=top;strokeWidth=1;shape=mxgraph.mockup.misc.map;" vertex="1" parent="1">
          <mxGeometry x="620" y="780" width="50" height="50" as="geometry" />
        </mxCell>
        <mxCell id="UGzT4yDKIXXeCEcgUepI-59" value="Map view" style="rounded=1;fillColor=#0057D8;strokeColor=none;html=1;whiteSpace=wrap;fontColor=#ffffff;align=center;verticalAlign=middle;fontStyle=0;fontSize=12;sketch=0;" vertex="1" parent="1">
          <mxGeometry x="521.41" y="797" width="86" height="33" as="geometry" />
        </mxCell>
        <mxCell id="UGzT4yDKIXXeCEcgUepI-61" value="Show analytics for one item" style="text;strokeColor=none;fillColor=none;align=left;verticalAlign=top;spacingLeft=4;spacingRight=4;overflow=hidden;rotatable=0;points=[[0,0.5],[1,0.5]];portConstraint=eastwest;whiteSpace=wrap;html=1;" vertex="1" parent="1">
          <mxGeometry x="280" y="190" width="60" height="76" as="geometry" />
        </mxCell>
        <mxCell id="UGzT4yDKIXXeCEcgUepI-63" value="" style="html=1;verticalLabelPosition=bottom;labelBackgroundColor=#ffffff;verticalAlign=top;shadow=0;dashed=0;strokeWidth=1;shape=mxgraph.ios7.misc.iphone;strokeColor=#c0c0c0;" vertex="1" parent="1">
          <mxGeometry x="140" y="950" width="200" height="400" as="geometry" />
        </mxCell>
        <mxCell id="UGzT4yDKIXXeCEcgUepI-64" value="Barcode view" style="rounded=0;whiteSpace=wrap;html=1;" vertex="1" parent="1">
          <mxGeometry x="184" y="950" width="120" height="60" as="geometry" />
        </mxCell>
        <mxCell id="UGzT4yDKIXXeCEcgUepI-65" value="" style="shape=image;html=1;verticalAlign=top;verticalLabelPosition=bottom;labelBackgroundColor=#ffffff;imageAspect=0;aspect=fixed;image=https://cdn4.iconfinder.com/data/icons/ionicons/512/icon-ios7-camera-outline-128.png" vertex="1" parent="1">
          <mxGeometry x="176" y="1000" width="128" height="128" as="geometry" />
        </mxCell>
        <mxCell id="UGzT4yDKIXXeCEcgUepI-66" value="Product Title" style="text;html=1;strokeColor=none;fillColor=none;align=center;verticalAlign=middle;whiteSpace=wrap;rounded=0;" vertex="1" parent="1">
          <mxGeometry x="210" y="1128" width="60" height="30" as="geometry" />
        </mxCell>
        <mxCell id="UGzT4yDKIXXeCEcgUepI-68" value="View" style="rounded=1;fillColor=#0057D8;strokeColor=none;html=1;whiteSpace=wrap;fontColor=#ffffff;align=center;verticalAlign=middle;fontStyle=0;fontSize=12;sketch=0;" vertex="1" parent="1">
          <mxGeometry x="201" y="1180" width="86" height="33" as="geometry" />
        </mxCell>
        <mxCell id="UGzT4yDKIXXeCEcgUepI-70" style="edgeStyle=orthogonalEdgeStyle;rounded=0;orthogonalLoop=1;jettySize=auto;html=1;" edge="1" parent="1" source="UGzT4yDKIXXeCEcgUepI-62" target="UGzT4yDKIXXeCEcgUepI-65">
          <mxGeometry relative="1" as="geometry">
            <mxPoint x="80" y="1101" as="targetPoint" />
            <Array as="points">
              <mxPoint x="81" y="169" />
              <mxPoint x="81" y="1064" />
            </Array>
          </mxGeometry>
        </mxCell>
        <mxCell id="UGzT4yDKIXXeCEcgUepI-71" value="" style="html=1;verticalLabelPosition=bottom;labelBackgroundColor=#ffffff;verticalAlign=top;shadow=0;dashed=0;strokeWidth=1;shape=mxgraph.ios7.misc.iphone;strokeColor=#c0c0c0;" vertex="1" parent="1">
          <mxGeometry x="502.18" y="950" width="200" height="400" as="geometry" />
        </mxCell>
        <mxCell id="UGzT4yDKIXXeCEcgUepI-72" value="Login View" style="rounded=0;whiteSpace=wrap;html=1;" vertex="1" parent="1">
          <mxGeometry x="546.5899999999999" y="950" width="120" height="60" as="geometry" />
        </mxCell>
        <mxCell id="UGzT4yDKIXXeCEcgUepI-73" value="Email" style="rounded=1;whiteSpace=wrap;html=1;" vertex="1" parent="1">
          <mxGeometry x="560" y="1030" width="80" height="20" as="geometry" />
        </mxCell>
        <mxCell id="UGzT4yDKIXXeCEcgUepI-74" value="Password" style="rounded=1;whiteSpace=wrap;html=1;" vertex="1" parent="1">
          <mxGeometry x="560" y="1060" width="80" height="20" as="geometry" />
        </mxCell>
        <mxCell id="UGzT4yDKIXXeCEcgUepI-75" value="Create account" style="rounded=1;fillColor=#0057D8;strokeColor=none;html=1;whiteSpace=wrap;fontColor=#ffffff;align=center;verticalAlign=middle;fontStyle=0;fontSize=12;sketch=0;" vertex="1" parent="1">
          <mxGeometry x="529.5" y="1090" width="68" height="30" as="geometry" />
        </mxCell>
        <mxCell id="UGzT4yDKIXXeCEcgUepI-76" value="Login" style="rounded=1;fillColor=#0057D8;strokeColor=none;html=1;whiteSpace=wrap;fontColor=#ffffff;align=center;verticalAlign=middle;fontStyle=0;fontSize=12;sketch=0;" vertex="1" parent="1">
          <mxGeometry x="600" y="1090" width="70" height="30" as="geometry" />
        </mxCell>
        <mxCell id="UGzT4yDKIXXeCEcgUepI-78" value="" style="html=1;verticalLabelPosition=bottom;labelBackgroundColor=#ffffff;verticalAlign=top;shadow=0;dashed=0;strokeWidth=1;shape=mxgraph.ios7.misc.iphone;strokeColor=#c0c0c0;" vertex="1" parent="1">
          <mxGeometry x="144.00000000000006" y="1390" width="200" height="400" as="geometry" />
        </mxCell>
        <mxCell id="UGzT4yDKIXXeCEcgUepI-79" value="Account View" style="rounded=1;whiteSpace=wrap;html=1;" vertex="1" parent="1">
          <mxGeometry x="194" y="1390" width="100" height="50" as="geometry" />
        </mxCell>
        <mxCell id="UGzT4yDKIXXeCEcgUepI-80" value="&lt;h1&gt;User Data&lt;/h1&gt;&lt;h1&gt;&lt;span style=&quot;font-size: 12px; font-weight: normal;&quot;&gt;Lorem ipsum dolor sit amet, consectetur adipisicing elit, sed do eiusmod tempor incididunt ut labore et dolore magna aliqua.&lt;/span&gt;&lt;br&gt;&lt;/h1&gt;" style="text;html=1;strokeColor=none;fillColor=none;spacing=5;spacingTop=-20;whiteSpace=wrap;overflow=hidden;rounded=0;" vertex="1" parent="1">
          <mxGeometry x="162" y="1450" width="168" height="120" as="geometry" />
        </mxCell>
        <mxCell id="UGzT4yDKIXXeCEcgUepI-81" value="Lists" style="swimlane;fontStyle=0;childLayout=stackLayout;horizontal=1;startSize=26;fillColor=none;horizontalStack=0;resizeParent=1;resizeParentMax=0;resizeLast=0;collapsible=1;marginBottom=0;html=1;" vertex="1" parent="1">
          <mxGeometry x="170" y="1560" width="140" height="104" as="geometry" />
        </mxCell>
        <mxCell id="UGzT4yDKIXXeCEcgUepI-82" value="List 1&amp;nbsp;" style="text;strokeColor=none;fillColor=none;align=left;verticalAlign=top;spacingLeft=4;spacingRight=4;overflow=hidden;rotatable=0;points=[[0,0.5],[1,0.5]];portConstraint=eastwest;whiteSpace=wrap;html=1;" vertex="1" parent="UGzT4yDKIXXeCEcgUepI-81">
          <mxGeometry y="26" width="140" height="26" as="geometry" />
        </mxCell>
        <mxCell id="UGzT4yDKIXXeCEcgUepI-83" value="List 2" style="text;strokeColor=none;fillColor=none;align=left;verticalAlign=top;spacingLeft=4;spacingRight=4;overflow=hidden;rotatable=0;points=[[0,0.5],[1,0.5]];portConstraint=eastwest;whiteSpace=wrap;html=1;" vertex="1" parent="UGzT4yDKIXXeCEcgUepI-81">
          <mxGeometry y="52" width="140" height="26" as="geometry" />
        </mxCell>
        <mxCell id="UGzT4yDKIXXeCEcgUepI-84" value="List 3" style="text;strokeColor=none;fillColor=none;align=left;verticalAlign=top;spacingLeft=4;spacingRight=4;overflow=hidden;rotatable=0;points=[[0,0.5],[1,0.5]];portConstraint=eastwest;whiteSpace=wrap;html=1;" vertex="1" parent="UGzT4yDKIXXeCEcgUepI-81">
          <mxGeometry y="78" width="140" height="26" as="geometry" />
        </mxCell>
        <mxCell id="UGzT4yDKIXXeCEcgUepI-85" value="" style="html=1;verticalLabelPosition=bottom;labelBackgroundColor=#ffffff;verticalAlign=top;shadow=0;dashed=0;strokeWidth=1;shape=mxgraph.ios7.misc.iphone;strokeColor=#c0c0c0;" vertex="1" parent="1">
          <mxGeometry x="529.5000000000001" y="1380" width="200" height="400" as="geometry" />
        </mxCell>
        <mxCell id="UGzT4yDKIXXeCEcgUepI-86" value="Discount Display" style="rounded=0;whiteSpace=wrap;html=1;" vertex="1" parent="1">
          <mxGeometry x="580" y="1380" width="120" height="60" as="geometry" />
        </mxCell>
        <mxCell id="UGzT4yDKIXXeCEcgUepI-87" value="" style="shape=mxgraph.signs.travel.pound;html=1;pointerEvents=1;fillColor=#000000;strokeColor=none;verticalLabelPosition=bottom;verticalAlign=top;align=center;" vertex="1" parent="1">
          <mxGeometry x="560" y="1480" width="27" height="48" as="geometry" />
        </mxCell>
        <mxCell id="UGzT4yDKIXXeCEcgUepI-88" value="Type of discount calculation" style="rounded=0;whiteSpace=wrap;html=1;" vertex="1" parent="1">
          <mxGeometry x="550" y="1540" width="120" height="60" as="geometry" />
        </mxCell>
        <mxCell id="UGzT4yDKIXXeCEcgUepI-89" value="Supermarket&amp;nbsp;&lt;br&gt;Name" style="text;html=1;strokeColor=none;fillColor=none;align=center;verticalAlign=middle;whiteSpace=wrap;rounded=0;" vertex="1" parent="1">
          <mxGeometry x="620" y="1460" width="60" height="30" as="geometry" />
        </mxCell>
        <mxCell id="UGzT4yDKIXXeCEcgUepI-90" value="&lt;ol&gt;&lt;li&gt;Value 1&lt;/li&gt;&lt;li&gt;Value 2&lt;/li&gt;&lt;li&gt;Value 3&lt;/li&gt;&lt;/ol&gt;" style="text;strokeColor=none;fillColor=none;html=1;whiteSpace=wrap;verticalAlign=middle;overflow=hidden;" vertex="1" parent="1">
          <mxGeometry x="550" y="1610" width="100" height="80" as="geometry" />
        </mxCell>
      </root>
    </mxGraphModel>
  </diagram>
  <diagram id="Bnch5LkRTkcMDpgfvG2U" name="Components">
    <mxGraphModel dx="984" dy="666" grid="1" gridSize="10" guides="1" tooltips="1" connect="1" arrows="1" fold="1" page="1" pageScale="1" pageWidth="827" pageHeight="1169" math="0" shadow="0">
      <root>
        <mxCell id="0" />
        <mxCell id="1" parent="0" />
        <mxCell id="HQ713ph4tdGv71LiNPqh-3" style="edgeStyle=orthogonalEdgeStyle;rounded=0;orthogonalLoop=1;jettySize=auto;html=1;exitX=0.5;exitY=1;exitDx=0;exitDy=0;entryX=0.5;entryY=0;entryDx=0;entryDy=0;" edge="1" parent="1" source="HQ713ph4tdGv71LiNPqh-1" target="HQ713ph4tdGv71LiNPqh-2">
          <mxGeometry relative="1" as="geometry" />
        </mxCell>
        <mxCell id="HQ713ph4tdGv71LiNPqh-1" value="App" style="rounded=0;whiteSpace=wrap;html=1;" vertex="1" parent="1">
          <mxGeometry x="370" y="20" width="120" height="60" as="geometry" />
        </mxCell>
        <mxCell id="HQ713ph4tdGv71LiNPqh-15" style="edgeStyle=orthogonalEdgeStyle;rounded=0;orthogonalLoop=1;jettySize=auto;html=1;exitX=0;exitY=1;exitDx=0;exitDy=0;" edge="1" parent="1" source="HQ713ph4tdGv71LiNPqh-2" target="HQ713ph4tdGv71LiNPqh-4">
          <mxGeometry relative="1" as="geometry">
            <Array as="points">
              <mxPoint x="130" y="220" />
            </Array>
          </mxGeometry>
        </mxCell>
        <mxCell id="HQ713ph4tdGv71LiNPqh-16" style="edgeStyle=orthogonalEdgeStyle;rounded=0;orthogonalLoop=1;jettySize=auto;html=1;exitX=0.25;exitY=1;exitDx=0;exitDy=0;entryX=0.5;entryY=0;entryDx=0;entryDy=0;" edge="1" parent="1" source="HQ713ph4tdGv71LiNPqh-2" target="HQ713ph4tdGv71LiNPqh-5">
          <mxGeometry relative="1" as="geometry">
            <Array as="points">
              <mxPoint x="280" y="220" />
            </Array>
          </mxGeometry>
        </mxCell>
        <mxCell id="HQ713ph4tdGv71LiNPqh-17" style="edgeStyle=orthogonalEdgeStyle;rounded=0;orthogonalLoop=1;jettySize=auto;html=1;exitX=0.5;exitY=1;exitDx=0;exitDy=0;" edge="1" parent="1" source="HQ713ph4tdGv71LiNPqh-2" target="HQ713ph4tdGv71LiNPqh-8">
          <mxGeometry relative="1" as="geometry">
            <Array as="points">
              <mxPoint x="420" y="220" />
            </Array>
          </mxGeometry>
        </mxCell>
        <mxCell id="HQ713ph4tdGv71LiNPqh-19" style="edgeStyle=orthogonalEdgeStyle;rounded=0;orthogonalLoop=1;jettySize=auto;html=1;exitX=1;exitY=0.5;exitDx=0;exitDy=0;entryX=0.5;entryY=0;entryDx=0;entryDy=0;" edge="1" parent="1" source="HQ713ph4tdGv71LiNPqh-2" target="HQ713ph4tdGv71LiNPqh-6">
          <mxGeometry relative="1" as="geometry">
            <Array as="points">
              <mxPoint x="420" y="220" />
              <mxPoint x="750" y="220" />
            </Array>
          </mxGeometry>
        </mxCell>
        <mxCell id="HQ713ph4tdGv71LiNPqh-2" value="Interface" style="rounded=0;whiteSpace=wrap;html=1;" vertex="1" parent="1">
          <mxGeometry x="340" y="160" width="180" height="60" as="geometry" />
        </mxCell>
        <mxCell id="HQ713ph4tdGv71LiNPqh-4" value="Product Search" style="rounded=0;whiteSpace=wrap;html=1;" vertex="1" parent="1">
          <mxGeometry x="70" y="330" width="120" height="60" as="geometry" />
        </mxCell>
        <mxCell id="HQ713ph4tdGv71LiNPqh-13" style="edgeStyle=orthogonalEdgeStyle;rounded=0;orthogonalLoop=1;jettySize=auto;html=1;exitX=0.5;exitY=1;exitDx=0;exitDy=0;" edge="1" parent="1" source="HQ713ph4tdGv71LiNPqh-5" target="HQ713ph4tdGv71LiNPqh-9">
          <mxGeometry relative="1" as="geometry" />
        </mxCell>
        <mxCell id="HQ713ph4tdGv71LiNPqh-5" value="Product Details" style="rounded=0;whiteSpace=wrap;html=1;" vertex="1" parent="1">
          <mxGeometry x="220" y="330" width="120" height="60" as="geometry" />
        </mxCell>
        <mxCell id="HQ713ph4tdGv71LiNPqh-6" value="Barcode Scanner" style="rounded=0;whiteSpace=wrap;html=1;" vertex="1" parent="1">
          <mxGeometry x="690" y="330" width="120" height="60" as="geometry" />
        </mxCell>
        <mxCell id="HQ713ph4tdGv71LiNPqh-7" value="Login/Logout" style="rounded=0;whiteSpace=wrap;html=1;" vertex="1" parent="1">
          <mxGeometry x="520" y="330" width="120" height="60" as="geometry" />
        </mxCell>
        <mxCell id="HQ713ph4tdGv71LiNPqh-14" style="edgeStyle=orthogonalEdgeStyle;rounded=0;orthogonalLoop=1;jettySize=auto;html=1;exitX=0.5;exitY=1;exitDx=0;exitDy=0;" edge="1" parent="1" source="HQ713ph4tdGv71LiNPqh-8" target="HQ713ph4tdGv71LiNPqh-9">
          <mxGeometry relative="1" as="geometry" />
        </mxCell>
        <mxCell id="HQ713ph4tdGv71LiNPqh-8" value="Shopping List" style="rounded=0;whiteSpace=wrap;html=1;" vertex="1" parent="1">
          <mxGeometry x="370" y="330" width="120" height="60" as="geometry" />
        </mxCell>
        <mxCell id="HQ713ph4tdGv71LiNPqh-9" value="Visualisation&amp;nbsp;" style="rounded=0;whiteSpace=wrap;html=1;" vertex="1" parent="1">
          <mxGeometry x="300" y="500" width="120" height="60" as="geometry" />
        </mxCell>
        <mxCell id="HQ713ph4tdGv71LiNPqh-21" style="edgeStyle=orthogonalEdgeStyle;rounded=0;orthogonalLoop=1;jettySize=auto;html=1;exitX=1;exitY=1;exitDx=0;exitDy=0;entryX=0.658;entryY=-0.017;entryDx=0;entryDy=0;entryPerimeter=0;" edge="1" parent="1" source="HQ713ph4tdGv71LiNPqh-2" target="HQ713ph4tdGv71LiNPqh-7">
          <mxGeometry relative="1" as="geometry">
            <Array as="points">
              <mxPoint x="599" y="220" />
            </Array>
          </mxGeometry>
        </mxCell>
      </root>
    </mxGraphModel>
  </diagram>
</mxfile>
